# xmcd CD database file
# Copyright (C) 1996 Ti Kan
#
# Track frame offsets:
# 	150
# 	10780
# 	20002
# 	34460
# 	50492
# 	64790
# 	75365
# 	89522
# 	101807
# 	113910
# 	128602
# 	141107
#
# Disc length: 2010 seconds
#
# Revision: 1
# Processed by: cddbd v1.4b41PL1 Copyright (c) Steve Scherf et al.
# Submitted via: DiscPlay 3.3.1
#
DISCID=9c07d80c
DTITLE=MEMPHIS SLIM - Memphis Slim At The Gate Of Horn
DYEAR=1900
DGENRE=
TTITLE0=The Comeback
TTITLE1=Steppin' Out
TTITLE2=Blue and Lonesome
TTITLE3=Mother Earth
TTITLE4=Slim's Blues
TTITLE5=Gotta Find My Baby
TTITLE6=Messin' Around
TTITLE7=Wish Me Well
TTITLE8=My Gal Keeps Me Crying
TTITLE9=Lend Me Your Love
TTITLE10=Sassy Mae
TTITLE11=Rockin'  the Blues
EXTD=
EXTT0=
EXTT1=
EXTT2=
EXTT3=
EXTT4=
EXTT5=
EXTT6=
EXTT7=
EXTT8=
EXTT9=
EXTT10=
EXTT11=
PLAYORDER=
